<svg id="Layer_1" data-name="Layer 1" xmlns="http://www.w3.org/2000/svg" viewBox="0 0 18 23"><defs><style>.cls-1{fill:#9b8080;}</style></defs><path class="cls-1" d="M2.25,12.68A2.28,2.28,0,0,0,0,15v18.4a2.28,2.28,0,0,0,2.25,2.3h13.5A2.28,2.28,0,0,0,18,33.38V15a2.28,2.28,0,0,0-2.25-2.3Zm0,2.3h13.5v18.4H2.25ZM4.5,17.65V20h9v-2.3Zm0,4.53v2.3h9v-2.3Zm0,5.52V30h9V27.7Z"/><path class="cls-1" d="M15.75,10.32A2.28,2.28,0,0,0,18,8v-18.4a2.28,2.28,0,0,0-2.25-2.3H2.25A2.28,2.28,0,0,0,0-10.38V8a2.28,2.28,0,0,0,2.25,2.3ZM2.25-10.38h13.5V8H2.25ZM13.5,5.35V3.05h-9v2.3Zm0-4.53v-2.3h-9V.82Zm0-5.52V-7h-9v2.3Z"/></svg>