<svg width="18" height="22" viewBox="0 0 18 22" fill="none" xmlns="http://www.w3.org/2000/svg">
<path d="M9.49227 0V7.88262L8.4288 7.7V1.1H6.30187V8.8V13.4428L4.47404 12.1387L4.39303 12.1C3.39285 11.6181 2.19499 11.8506 1.43319 12.6758L0 14.2334L5.32979 20.9945L5.36718 21.0332C5.96451 21.651 6.77647 22 7.6229 22H14.8096C16.559 22 18 20.5095 18 18.7V12.1V11.2127V3.3H15.8731V8.98262L14.8096 8.8V1.1H12.6827V8.43262L11.6192 8.25V0H9.49227ZM8.4288 9.93008L15.8731 11.2148V12.1V18.7C15.8731 19.3215 15.4105 19.8 14.8096 19.8H7.6229C7.34475 19.8 7.08258 19.6847 6.88345 19.4842L2.83314 14.3451L2.97231 14.1947C3.10522 14.0507 3.29786 14.0222 3.47496 14.098L8.4288 17.6322V9.93008Z" fill="#9B8080"/>
</svg>
