<svg width="16" height="25" viewBox="0 0 16 25" fill="none" xmlns="http://www.w3.org/2000/svg">
<path d="M1.86478 1.86478L14.1352 13.3594L9.12358 13.811L8.21304 13.8948L8.59183 14.7288L11.633 21.3903L9.38946 22.3774L6.48667 15.643L6.12245 14.7944L5.44865 15.4281L1.89028 18.768L1.86478 1.86478ZM1.86478 0C1.61347 0 1.36216 0.047348 1.12178 0.152971C0.4407 0.447984 0 1.12178 0 1.86478L0.0254955 18.768C0.0254955 19.511 0.469837 20.1811 1.14728 20.4762C1.38766 20.5781 1.63897 20.6291 1.88663 20.6291C2.35283 20.6291 2.81174 20.4543 3.16503 20.1265L5.45958 17.9704L7.67765 23.1131C7.87433 23.572 8.24582 23.9289 8.70838 24.111C8.92691 24.1984 9.15636 24.2421 9.38946 24.2421C9.64441 24.2421 9.89936 24.1875 10.1397 24.0819L12.3833 23.0949C12.8386 22.8945 13.1991 22.5194 13.374 22.0532C13.5524 21.587 13.5379 21.0698 13.3303 20.6146L10.9993 15.5156L14.3027 15.2133C15.0348 15.1477 15.6612 14.6596 15.898 13.964C16.1384 13.2683 15.9453 12.4999 15.4099 11.9972L3.13953 0.502617C2.78624 0.171181 2.32733 0 1.86478 0Z" fill="#9B8080"/>
</svg>
