<svg width="18" height="23" viewBox="0 0 18 23" fill="none" xmlns="http://www.w3.org/2000/svg">
<g clip-path="url(#clip0_29_7)">
<path d="M2.25009 0C1.64713 0.00791069 1.07186 0.254361 0.650179 0.685413C0.228497 1.11647 -0.00525189 1.69701 8.95706e-05 2.3V20.7C-0.00525189 21.303 0.228497 21.8835 0.650179 22.3146C1.07186 22.7456 1.64713 22.9921 2.25009 23H15.7501C16.353 22.9921 16.9283 22.7456 17.35 22.3146C17.7717 21.8835 18.0054 21.303 18.0001 20.7V2.3C18.0054 1.69701 17.7717 1.11647 17.35 0.685413C16.9283 0.254361 16.353 0.00791069 15.7501 0L2.25009 0ZM2.25009 2.3H15.7501V20.7H2.25009V2.3ZM10.1501 0H7.85009V23H10.1501V0Z" fill="#9B8080"/>
</g>
<defs>
<clipPath id="clip0_29_7">
<rect width="18" height="23" fill="white"/>
</clipPath>
</defs>
</svg>
