<svg id="Layer_1" data-name="Layer 1" xmlns="http://www.w3.org/2000/svg" viewBox="0 0 18 23"><defs><style>.cls-1{fill:#9b8080;}</style></defs><path class="cls-1" d="M-7.88,0a2.28,2.28,0,0,0-2.25,2.3V20.7A2.28,2.28,0,0,0-7.88,23H5.62a2.27,2.27,0,0,0,2.25-2.3V2.3A2.27,2.27,0,0,0,5.62,0Zm0,2.3H5.62V20.7H-7.88Zm2.25,3.52v2.3h9V5.82Zm0,4.53v2.3h9v-2.3Zm0,4.67v2.3h9V15Zm18-15a2.27,2.27,0,0,0-2.25,2.3V20.7A2.27,2.27,0,0,0,12.38,23h13.5a2.28,2.28,0,0,0,2.25-2.3V2.3A2.28,2.28,0,0,0,25.88,0Zm0,2.3h13.5V20.7H12.38Zm2.25,3.52v2.3h9V5.82Zm0,4.53v2.3h9v-2.3Zm0,4.67v2.3h9V15Z"/></svg>