<svg id="Layer_1" data-name="Layer 1" xmlns="http://www.w3.org/2000/svg" viewBox="0 0 18 23"><defs><style>.cls-1{fill:#9b8080;}</style></defs><path class="cls-1" d="M3.35,2.36,14.43,12.54l-4.36.56-1,.08.28.86,2.72,6-1.73.8-2.65-6-.41-1.12-.8.73-3,2.72ZM3.18,0a1.62,1.62,0,0,0-.71.15A1.76,1.76,0,0,0,1.41,1.77l0,16A1.78,1.78,0,0,0,2.5,19.43a1.9,1.9,0,0,0,.7.14,1.77,1.77,0,0,0,1.21-.47l2.18-2.05,2.1,4.88A1.76,1.76,0,0,0,10.32,23a1.78,1.78,0,0,0,.71-.15l2.13-.94a1.76,1.76,0,0,0,.94-1,1.78,1.78,0,0,0,0-1.36l-2.21-4.84L15,14.43a1.77,1.77,0,0,0,1.05-3L4.39.48A1.75,1.75,0,0,0,3.18,0Z"/></svg>